<svg width="155" height="109" viewBox="0 0 155 109" fill="none" xmlns="http://www.w3.org/2000/svg">
    <path d="M12.0832 106H10.0282V105.265C9.66824 105.555 9.28824 105.78 8.88824 105.94C8.48824 106.09 8.09824 106.165 7.71824 106.165C7.26824 106.165 6.85324 106.055 6.47324 105.835C6.09324 105.615 5.76324 105.31 5.48324 104.92C5.21324 104.52 4.99824 104.045 4.83824 103.495C4.67824 102.945 4.59824 102.345 4.59824 101.695C4.59824 101.015 4.68324 100.38 4.85324 99.79C5.02324 99.2 5.25324 98.69 5.54324 98.26C5.84324 97.82 6.19324 97.48 6.59324 97.24C7.00324 96.99 7.44324 96.865 7.91324 96.865C8.32324 96.865 8.71324 96.955 9.08324 97.135C9.45324 97.305 9.76824 97.52 10.0282 97.78V97.03H12.1582L12.0832 106ZM7.46324 100.585C7.46324 100.995 7.57324 101.325 7.79324 101.575C8.02324 101.825 8.31324 101.95 8.66324 101.95C9.04324 101.95 9.36324 101.815 9.62324 101.545C9.89324 101.275 10.0282 100.93 10.0282 100.51C10.0282 100.32 9.99324 100.14 9.92324 99.97C9.86324 99.8 9.77324 99.655 9.65324 99.535C9.53324 99.405 9.39324 99.305 9.23324 99.235C9.07324 99.165 8.90324 99.13 8.72324 99.13C8.36324 99.13 8.06324 99.265 7.82324 99.535C7.58324 99.805 7.46324 100.155 7.46324 100.585ZM22.9749 97.03L21.2649 106H18.4899L17.7399 101.47L17.0049 106H14.2449L12.5049 97.03H14.7549L15.3699 101.8C15.3999 102.01 15.4349 102.17 15.4749 102.28C15.5249 102.38 15.5999 102.43 15.6999 102.43C15.7799 102.43 15.8399 102.38 15.8799 102.28C15.9199 102.18 15.9549 102.02 15.9849 101.8L16.7199 97.03H18.7599L19.5399 101.8C19.5699 102.01 19.6049 102.17 19.6449 102.28C19.6949 102.38 19.7649 102.43 19.8549 102.43C20.0049 102.43 20.0999 102.22 20.1399 101.8L20.7249 97.03H22.9749ZM26.1795 101.275C26.3095 101.705 26.5245 102.055 26.8245 102.325C27.1245 102.595 27.5395 102.73 28.0695 102.73C28.2295 102.73 28.3995 102.72 28.5795 102.7C28.7695 102.67 28.9545 102.635 29.1345 102.595C29.3145 102.545 29.4845 102.495 29.6445 102.445C29.8045 102.385 29.9445 102.33 30.0645 102.28C30.0845 102.57 30.0945 102.88 30.0945 103.21C30.1045 103.53 30.1095 103.85 30.1095 104.17C30.1095 104.7 30.0945 105.175 30.0645 105.595C29.2845 105.975 28.4095 106.165 27.4395 106.165C26.9895 106.165 26.5345 106.115 26.0745 106.015C25.6145 105.915 25.1695 105.725 24.7395 105.445C24.3595 105.195 24.0445 104.905 23.7945 104.575C23.5545 104.235 23.3645 103.89 23.2245 103.54C23.0845 103.18 22.9895 102.83 22.9395 102.49C22.8895 102.15 22.8645 101.845 22.8645 101.575C22.8645 101.175 22.9095 100.76 22.9995 100.33C23.0995 99.89 23.2495 99.475 23.4495 99.085C23.6495 98.685 23.9045 98.32 24.2145 97.99C24.5245 97.66 24.8895 97.4 25.3095 97.21C25.8195 96.98 26.3595 96.865 26.9295 96.865C27.5295 96.865 28.0695 96.985 28.5495 97.225C29.0295 97.465 29.4195 97.795 29.7195 98.215C30.0095 98.615 30.1895 99.06 30.2595 99.55C30.3395 100.04 30.3795 100.615 30.3795 101.275H26.1795ZM27.0345 98.485C26.8245 98.485 26.6245 98.575 26.4345 98.755C26.2445 98.925 26.1195 99.23 26.0595 99.67H28.0245C27.9845 99.27 27.8645 98.975 27.6645 98.785C27.4745 98.585 27.2645 98.485 27.0345 98.485ZM31.7964 97.585C32.1364 97.315 32.5014 97.13 32.8914 97.03C33.2814 96.92 33.6764 96.865 34.0764 96.865C34.3664 96.865 34.6514 96.89 34.9314 96.94C35.2214 96.99 35.4964 97.055 35.7564 97.135C35.7764 97.745 35.7864 98.245 35.7864 98.635C35.7964 99.015 35.8014 99.31 35.8014 99.52C35.8014 99.82 35.7964 100.035 35.7864 100.165C35.7764 100.285 35.7664 100.4 35.7564 100.51C35.7364 100.51 35.6864 100.5 35.6064 100.48C35.5264 100.46 35.4314 100.44 35.3214 100.42C35.2114 100.4 35.0914 100.385 34.9614 100.375C34.8414 100.355 34.7214 100.345 34.6014 100.345C34.4214 100.345 34.2664 100.37 34.1364 100.42C34.0164 100.46 33.9564 100.545 33.9564 100.675C33.9564 100.785 33.9964 100.89 34.0764 100.99C34.1564 101.08 34.2514 101.175 34.3614 101.275C34.4814 101.365 34.6064 101.455 34.7364 101.545C34.8764 101.625 35.0064 101.7 35.1264 101.77C35.3964 101.95 35.6464 102.195 35.8764 102.505C36.1164 102.805 36.2364 103.205 36.2364 103.705C36.2364 104.145 36.1364 104.52 35.9364 104.83C35.7464 105.14 35.5014 105.395 35.2014 105.595C34.9014 105.795 34.5614 105.94 34.1814 106.03C33.8114 106.12 33.4464 106.165 33.0864 106.165C32.9464 106.165 32.7864 106.16 32.6064 106.15C32.4264 106.14 32.2414 106.12 32.0514 106.09C31.8714 106.06 31.6914 106.025 31.5114 105.985C31.3314 105.935 31.1664 105.875 31.0164 105.805C30.9664 105.635 30.9314 105.455 30.9114 105.265C30.8914 105.065 30.8814 104.87 30.8814 104.68C30.8814 104.59 30.8814 104.48 30.8814 104.35C30.8914 104.22 30.9014 104.09 30.9114 103.96C30.9214 103.82 30.9364 103.685 30.9564 103.555C30.9764 103.425 30.9964 103.315 31.0164 103.225C31.1264 103.275 31.2514 103.33 31.3914 103.39C31.5414 103.44 31.6964 103.49 31.8564 103.54C32.0164 103.59 32.1714 103.635 32.3214 103.675C32.4814 103.705 32.6314 103.72 32.7714 103.72C32.9714 103.72 33.1264 103.68 33.2364 103.6C33.3464 103.52 33.4014 103.41 33.4014 103.27C33.4014 103.15 33.3664 103.045 33.2964 102.955C33.2264 102.855 33.1414 102.765 33.0414 102.685C32.9414 102.595 32.8314 102.52 32.7114 102.46C32.5914 102.39 32.4814 102.33 32.3814 102.28C32.1914 102.18 31.9964 102.07 31.7964 101.95C31.5964 101.83 31.4164 101.685 31.2564 101.515C31.0964 101.335 30.9664 101.12 30.8664 100.87C30.7664 100.62 30.7164 100.315 30.7164 99.955C30.7164 99.535 30.7964 99.115 30.9564 98.695C31.1264 98.275 31.4064 97.905 31.7964 97.585ZM39.9086 96.865C41.1286 96.865 41.9986 97.265 42.5186 98.065C43.0486 98.865 43.3136 100.015 43.3136 101.515C43.3136 103.025 43.0486 104.18 42.5186 104.98C41.9986 105.77 41.1286 106.165 39.9086 106.165C38.6786 106.165 37.7986 105.77 37.2686 104.98C36.7486 104.18 36.4886 103.025 36.4886 101.515C36.4886 100.015 36.7486 98.865 37.2686 98.065C37.7986 97.265 38.6786 96.865 39.9086 96.865ZM39.9086 102.64C40.1086 102.64 40.2836 102.6 40.4336 102.52C40.5936 102.44 40.7236 102.335 40.8236 102.205C40.9236 102.075 40.9986 101.93 41.0486 101.77C41.0986 101.6 41.1236 101.425 41.1236 101.245C41.1236 101.065 41.0986 100.89 41.0486 100.72C40.9986 100.55 40.9236 100.4 40.8236 100.27C40.7236 100.14 40.5936 100.035 40.4336 99.955C40.2836 99.875 40.1086 99.835 39.9086 99.835C39.4986 99.835 39.1886 99.98 38.9786 100.27C38.7786 100.56 38.6786 100.885 38.6786 101.245C38.6786 101.425 38.7036 101.6 38.7536 101.77C38.8036 101.93 38.8786 102.075 38.9786 102.205C39.0886 102.335 39.2186 102.44 39.3686 102.52C39.5186 102.6 39.6986 102.64 39.9086 102.64ZM46.0363 97.03V97.825C46.2363 97.505 46.5013 97.265 46.8313 97.105C47.1713 96.945 47.5313 96.865 47.9113 96.865C48.2713 96.865 48.6013 96.945 48.9013 97.105C49.2013 97.255 49.4313 97.5 49.5913 97.84C49.7713 97.52 50.0413 97.28 50.4013 97.12C50.7713 96.95 51.1713 96.865 51.6013 96.865C52.2513 96.865 52.7463 97.075 53.0863 97.495C53.4363 97.905 53.6113 98.6 53.6113 99.58V106H51.4063V101.395C51.4063 101.025 51.3263 100.76 51.1663 100.6C51.0163 100.43 50.8413 100.345 50.6413 100.345C50.4413 100.345 50.2563 100.43 50.0863 100.6C49.9163 100.76 49.8313 100.985 49.8313 101.275V106H47.6263V101.575C47.6263 101.185 47.5363 100.9 47.3563 100.72C47.1863 100.54 47.0013 100.45 46.8013 100.45C46.6013 100.45 46.4213 100.54 46.2613 100.72C46.1113 100.89 46.0363 101.12 46.0363 101.41V106H43.8613C43.8613 105.7 43.8613 105.365 43.8613 104.995C43.8613 104.625 43.8613 104.25 43.8613 103.87C43.8713 103.49 43.8763 103.13 43.8763 102.79C43.8763 102.44 43.8763 102.135 43.8763 101.875C43.8763 101.625 43.8763 101.305 43.8763 100.915C43.8763 100.515 43.8713 100.09 43.8613 99.64C43.8613 99.19 43.8613 98.74 43.8613 98.29C43.8613 97.83 43.8613 97.41 43.8613 97.03H46.0363ZM57.41 101.275C57.54 101.705 57.755 102.055 58.055 102.325C58.355 102.595 58.77 102.73 59.3 102.73C59.46 102.73 59.63 102.72 59.81 102.7C60 102.67 60.185 102.635 60.365 102.595C60.545 102.545 60.715 102.495 60.875 102.445C61.035 102.385 61.175 102.33 61.295 102.28C61.315 102.57 61.325 102.88 61.325 103.21C61.335 103.53 61.34 103.85 61.34 104.17C61.34 104.7 61.325 105.175 61.295 105.595C60.515 105.975 59.64 106.165 58.67 106.165C58.22 106.165 57.765 106.115 57.305 106.015C56.845 105.915 56.4 105.725 55.97 105.445C55.59 105.195 55.275 104.905 55.025 104.575C54.785 104.235 54.595 103.89 54.455 103.54C54.315 103.18 54.22 102.83 54.17 102.49C54.12 102.15 54.095 101.845 54.095 101.575C54.095 101.175 54.14 100.76 54.23 100.33C54.33 99.89 54.48 99.475 54.68 99.085C54.88 98.685 55.135 98.32 55.445 97.99C55.755 97.66 56.12 97.4 56.54 97.21C57.05 96.98 57.59 96.865 58.16 96.865C58.76 96.865 59.3 96.985 59.78 97.225C60.26 97.465 60.65 97.795 60.95 98.215C61.24 98.615 61.42 99.06 61.49 99.55C61.57 100.04 61.61 100.615 61.61 101.275H57.41ZM58.265 98.485C58.055 98.485 57.855 98.575 57.665 98.755C57.475 98.925 57.35 99.23 57.29 99.67H59.255C59.215 99.27 59.095 98.975 58.895 98.785C58.705 98.585 58.495 98.485 58.265 98.485ZM64.6211 95.29H66.6761V97.03H67.8311V101.02H66.6461V103.12C66.6461 103.53 66.6811 103.805 66.7511 103.945C66.8211 104.075 66.9811 104.14 67.2311 104.14C67.3011 104.14 67.3961 104.135 67.5161 104.125C67.6361 104.115 67.7261 104.1 67.7861 104.08C67.8061 104.15 67.8161 104.295 67.8161 104.515C67.8161 104.725 67.8161 104.94 67.8161 105.16C67.8161 105.35 67.8161 105.525 67.8161 105.685C67.8161 105.835 67.8111 105.94 67.8011 106C67.6811 106.02 67.5461 106.035 67.3961 106.045C67.2561 106.065 67.1161 106.08 66.9761 106.09C66.8461 106.1 66.7211 106.105 66.6011 106.105C66.4911 106.115 66.4011 106.12 66.3311 106.12C65.9711 106.12 65.6761 106.05 65.4461 105.91C65.2161 105.77 65.0361 105.585 64.9061 105.355C64.7761 105.115 64.6861 104.85 64.6361 104.56C64.5861 104.26 64.5611 103.955 64.5611 103.645C64.5611 103.525 64.5611 103.35 64.5611 103.12C64.5711 102.88 64.5761 102.63 64.5761 102.37C64.5861 102.11 64.5961 101.86 64.6061 101.62C64.6161 101.37 64.6211 101.17 64.6211 101.02H63.7211V97.03H64.6211V95.29ZM78.5071 97.03L76.7971 106H74.0221L73.2721 101.47L72.5371 106H69.7771L68.0371 97.03H70.2871L70.9021 101.8C70.9321 102.01 70.9671 102.17 71.0071 102.28C71.0571 102.38 71.1321 102.43 71.2321 102.43C71.3121 102.43 71.3721 102.38 71.4121 102.28C71.4521 102.18 71.4871 102.02 71.5171 101.8L72.2521 97.03H74.2921L75.0721 101.8C75.1021 102.01 75.1371 102.17 75.1771 102.28C75.2271 102.38 75.2971 102.43 75.3871 102.43C75.5371 102.43 75.6321 102.22 75.6721 101.8L76.2571 97.03H78.5071ZM78.8861 97.27H81.0911V106H78.8861V97.27ZM80.0411 93.55C80.2811 93.55 80.4961 93.6 80.6861 93.7C80.8861 93.79 81.0511 93.91 81.1811 94.06C81.3111 94.21 81.4111 94.38 81.4811 94.57C81.5511 94.75 81.5861 94.925 81.5861 95.095C81.5861 95.325 81.5411 95.54 81.4511 95.74C81.3711 95.93 81.2561 96.1 81.1061 96.25C80.9661 96.39 80.8011 96.505 80.6111 96.595C80.4311 96.675 80.2361 96.715 80.0261 96.715C79.7661 96.715 79.5361 96.675 79.3361 96.595C79.1361 96.505 78.9661 96.395 78.8261 96.265C78.6961 96.125 78.5961 95.965 78.5261 95.785C78.4661 95.605 78.4361 95.42 78.4361 95.23C78.4361 95.04 78.4711 94.845 78.5411 94.645C78.6211 94.445 78.7261 94.265 78.8561 94.105C78.9961 93.935 79.1661 93.8 79.3661 93.7C79.5661 93.6 79.7911 93.55 80.0411 93.55ZM82.6094 95.29H84.6644V97.03H85.8194V101.02H84.6344V103.12C84.6344 103.53 84.6694 103.805 84.7394 103.945C84.8094 104.075 84.9694 104.14 85.2194 104.14C85.2894 104.14 85.3844 104.135 85.5044 104.125C85.6244 104.115 85.7144 104.1 85.7744 104.08C85.7944 104.15 85.8044 104.295 85.8044 104.515C85.8044 104.725 85.8044 104.94 85.8044 105.16C85.8044 105.35 85.8044 105.525 85.8044 105.685C85.8044 105.835 85.7994 105.94 85.7894 106C85.6694 106.02 85.5344 106.035 85.3844 106.045C85.2444 106.065 85.1044 106.08 84.9644 106.09C84.8344 106.1 84.7094 106.105 84.5894 106.105C84.4794 106.115 84.3894 106.12 84.3194 106.12C83.9594 106.12 83.6644 106.05 83.4344 105.91C83.2044 105.77 83.0244 105.585 82.8944 105.355C82.7644 105.115 82.6744 104.85 82.6244 104.56C82.5744 104.26 82.5494 103.955 82.5494 103.645C82.5494 103.525 82.5494 103.35 82.5494 103.12C82.5594 102.88 82.5644 102.63 82.5644 102.37C82.5744 102.11 82.5844 101.86 82.5944 101.62C82.6044 101.37 82.6094 101.17 82.6094 101.02H81.7094V97.03H82.6094V95.29ZM87.1504 95.29H89.2054V97.03H90.3604V101.02H89.1754V103.12C89.1754 103.53 89.2104 103.805 89.2804 103.945C89.3504 104.075 89.5104 104.14 89.7604 104.14C89.8304 104.14 89.9254 104.135 90.0454 104.125C90.1654 104.115 90.2554 104.1 90.3154 104.08C90.3354 104.15 90.3454 104.295 90.3454 104.515C90.3454 104.725 90.3454 104.94 90.3454 105.16C90.3454 105.35 90.3454 105.525 90.3454 105.685C90.3454 105.835 90.3404 105.94 90.3304 106C90.2104 106.02 90.0754 106.035 89.9254 106.045C89.7854 106.065 89.6454 106.08 89.5054 106.09C89.3754 106.1 89.2504 106.105 89.1304 106.105C89.0204 106.115 88.9304 106.12 88.8604 106.12C88.5004 106.12 88.2054 106.05 87.9754 105.91C87.7454 105.77 87.5654 105.585 87.4354 105.355C87.3054 105.115 87.2154 104.85 87.1654 104.56C87.1154 104.26 87.0904 103.955 87.0904 103.645C87.0904 103.525 87.0904 103.35 87.0904 103.12C87.1004 102.88 87.1054 102.63 87.1054 102.37C87.1154 102.11 87.1254 101.86 87.1354 101.62C87.1454 101.37 87.1504 101.17 87.1504 101.02H86.2504V97.03H87.1504V95.29ZM93.9578 101.275C94.0878 101.705 94.3028 102.055 94.6028 102.325C94.9028 102.595 95.3178 102.73 95.8478 102.73C96.0078 102.73 96.1778 102.72 96.3578 102.7C96.5478 102.67 96.7328 102.635 96.9128 102.595C97.0928 102.545 97.2628 102.495 97.4228 102.445C97.5828 102.385 97.7228 102.33 97.8428 102.28C97.8628 102.57 97.8728 102.88 97.8728 103.21C97.8828 103.53 97.8878 103.85 97.8878 104.17C97.8878 104.7 97.8728 105.175 97.8428 105.595C97.0628 105.975 96.1878 106.165 95.2178 106.165C94.7678 106.165 94.3128 106.115 93.8528 106.015C93.3928 105.915 92.9478 105.725 92.5178 105.445C92.1378 105.195 91.8228 104.905 91.5728 104.575C91.3328 104.235 91.1428 103.89 91.0028 103.54C90.8628 103.18 90.7678 102.83 90.7178 102.49C90.6678 102.15 90.6428 101.845 90.6428 101.575C90.6428 101.175 90.6878 100.76 90.7778 100.33C90.8778 99.89 91.0278 99.475 91.2278 99.085C91.4278 98.685 91.6828 98.32 91.9928 97.99C92.3028 97.66 92.6678 97.4 93.0878 97.21C93.5978 96.98 94.1378 96.865 94.7078 96.865C95.3078 96.865 95.8478 96.985 96.3278 97.225C96.8078 97.465 97.1978 97.795 97.4978 98.215C97.7878 98.615 97.9678 99.06 98.0378 99.55C98.1178 100.04 98.1578 100.615 98.1578 101.275H93.9578ZM94.8128 98.485C94.6028 98.485 94.4028 98.575 94.2128 98.755C94.0228 98.925 93.8978 99.23 93.8378 99.67H95.8028C95.7628 99.27 95.6428 98.975 95.4428 98.785C95.2528 98.585 95.0428 98.485 94.8128 98.485ZM100.625 97.03L100.73 98.17C100.85 97.98 100.995 97.805 101.165 97.645C101.335 97.485 101.51 97.35 101.69 97.24C101.88 97.12 102.065 97.03 102.245 96.97C102.435 96.9 102.61 96.865 102.77 96.865C102.79 97.125 102.805 97.425 102.815 97.765C102.835 98.095 102.845 98.435 102.845 98.785C102.845 99.185 102.835 99.58 102.815 99.97C102.805 100.36 102.79 100.72 102.77 101.05C102.68 101.01 102.555 100.98 102.395 100.96C102.235 100.94 102.1 100.93 101.99 100.93C101.62 100.93 101.345 101.02 101.165 101.2C100.995 101.37 100.91 101.585 100.91 101.845V106H98.7047C98.7147 104.38 98.7197 102.845 98.7197 101.395C98.7297 99.935 98.7347 98.48 98.7347 97.03H100.625ZM105.842 95.29H107.897V97.03H109.052V101.02H107.867V103.12C107.867 103.53 107.902 103.805 107.972 103.945C108.042 104.075 108.202 104.14 108.452 104.14C108.522 104.14 108.617 104.135 108.737 104.125C108.857 104.115 108.947 104.1 109.007 104.08C109.027 104.15 109.037 104.295 109.037 104.515C109.037 104.725 109.037 104.94 109.037 105.16C109.037 105.35 109.037 105.525 109.037 105.685C109.037 105.835 109.032 105.94 109.022 106C108.902 106.02 108.767 106.035 108.617 106.045C108.477 106.065 108.337 106.08 108.197 106.09C108.067 106.1 107.942 106.105 107.822 106.105C107.712 106.115 107.622 106.12 107.552 106.12C107.192 106.12 106.897 106.05 106.667 105.91C106.437 105.77 106.257 105.585 106.127 105.355C105.997 105.115 105.907 104.85 105.857 104.56C105.807 104.26 105.782 103.955 105.782 103.645C105.782 103.525 105.782 103.35 105.782 103.12C105.792 102.88 105.797 102.63 105.797 102.37C105.807 102.11 105.817 101.86 105.827 101.62C105.837 101.37 105.842 101.17 105.842 101.02H104.942V97.03H105.842V95.29ZM111.973 93.385C111.943 93.945 111.918 94.435 111.898 94.855C111.878 95.265 111.863 95.645 111.853 95.995C111.843 96.335 111.833 96.655 111.823 96.955C111.823 97.245 111.823 97.54 111.823 97.84C112.063 97.54 112.353 97.305 112.693 97.135C113.033 96.955 113.378 96.865 113.728 96.865C113.948 96.865 114.158 96.9 114.358 96.97C114.568 97.03 114.758 97.115 114.928 97.225C115.098 97.335 115.243 97.47 115.363 97.63C115.493 97.78 115.588 97.945 115.648 98.125C115.688 98.265 115.718 98.47 115.738 98.74C115.768 99 115.783 99.285 115.783 99.595V106H113.578V101.5C113.578 101.2 113.503 100.965 113.353 100.795C113.213 100.615 113.023 100.525 112.783 100.525C112.533 100.525 112.308 100.605 112.108 100.765C111.918 100.925 111.823 101.12 111.823 101.35V106H109.618C109.638 104.67 109.648 103.25 109.648 101.74C109.648 100.22 109.648 98.59 109.648 96.85C109.648 96.31 109.648 95.86 109.648 95.5C109.648 95.13 109.648 94.82 109.648 94.57C109.648 94.32 109.643 94.105 109.633 93.925C109.633 93.745 109.633 93.565 109.633 93.385H111.973ZM118.423 97.03L118.528 98.17C118.648 97.98 118.793 97.805 118.963 97.645C119.133 97.485 119.308 97.35 119.488 97.24C119.678 97.12 119.863 97.03 120.043 96.97C120.233 96.9 120.408 96.865 120.568 96.865C120.588 97.125 120.603 97.425 120.613 97.765C120.633 98.095 120.643 98.435 120.643 98.785C120.643 99.185 120.633 99.58 120.613 99.97C120.603 100.36 120.588 100.72 120.568 101.05C120.478 101.01 120.353 100.98 120.193 100.96C120.033 100.94 119.898 100.93 119.788 100.93C119.418 100.93 119.143 101.02 118.963 101.2C118.793 101.37 118.708 101.585 118.708 101.845V106H116.503C116.513 104.38 116.518 102.845 116.518 101.395C116.528 99.935 116.533 98.48 116.533 97.03H118.423ZM124.309 101.275C124.439 101.705 124.654 102.055 124.954 102.325C125.254 102.595 125.669 102.73 126.199 102.73C126.359 102.73 126.529 102.72 126.709 102.7C126.899 102.67 127.084 102.635 127.264 102.595C127.444 102.545 127.614 102.495 127.774 102.445C127.934 102.385 128.074 102.33 128.194 102.28C128.214 102.57 128.224 102.88 128.224 103.21C128.234 103.53 128.239 103.85 128.239 104.17C128.239 104.7 128.224 105.175 128.194 105.595C127.414 105.975 126.539 106.165 125.569 106.165C125.119 106.165 124.664 106.115 124.204 106.015C123.744 105.915 123.299 105.725 122.869 105.445C122.489 105.195 122.174 104.905 121.924 104.575C121.684 104.235 121.494 103.89 121.354 103.54C121.214 103.18 121.119 102.83 121.069 102.49C121.019 102.15 120.994 101.845 120.994 101.575C120.994 101.175 121.039 100.76 121.129 100.33C121.229 99.89 121.379 99.475 121.579 99.085C121.779 98.685 122.034 98.32 122.344 97.99C122.654 97.66 123.019 97.4 123.439 97.21C123.949 96.98 124.489 96.865 125.059 96.865C125.659 96.865 126.199 96.985 126.679 97.225C127.159 97.465 127.549 97.795 127.849 98.215C128.139 98.615 128.319 99.06 128.389 99.55C128.469 100.04 128.509 100.615 128.509 101.275H124.309ZM125.164 98.485C124.954 98.485 124.754 98.575 124.564 98.755C124.374 98.925 124.249 99.23 124.189 99.67H126.154C126.114 99.27 125.994 98.975 125.794 98.785C125.604 98.585 125.394 98.485 125.164 98.485ZM136.331 106H134.276V105.265C133.916 105.555 133.536 105.78 133.136 105.94C132.736 106.09 132.346 106.165 131.966 106.165C131.516 106.165 131.101 106.055 130.721 105.835C130.341 105.615 130.011 105.31 129.731 104.92C129.461 104.52 129.246 104.045 129.086 103.495C128.926 102.945 128.846 102.345 128.846 101.695C128.846 101.015 128.931 100.38 129.101 99.79C129.271 99.2 129.501 98.69 129.791 98.26C130.091 97.82 130.441 97.48 130.841 97.24C131.251 96.99 131.691 96.865 132.161 96.865C132.571 96.865 132.961 96.955 133.331 97.135C133.701 97.305 134.016 97.52 134.276 97.78V97.03H136.406L136.331 106ZM131.711 100.585C131.711 100.995 131.821 101.325 132.041 101.575C132.271 101.825 132.561 101.95 132.911 101.95C133.291 101.95 133.611 101.815 133.871 101.545C134.141 101.275 134.276 100.93 134.276 100.51C134.276 100.32 134.241 100.14 134.171 99.97C134.111 99.8 134.021 99.655 133.901 99.535C133.781 99.405 133.641 99.305 133.481 99.235C133.321 99.165 133.151 99.13 132.971 99.13C132.611 99.13 132.311 99.265 132.071 99.535C131.831 99.805 131.711 100.155 131.711 100.585ZM144.388 106H142.333V105.265C141.973 105.555 141.593 105.78 141.193 105.94C140.793 106.09 140.403 106.165 140.023 106.165C139.573 106.165 139.158 106.055 138.778 105.835C138.398 105.615 138.068 105.31 137.788 104.92C137.518 104.52 137.303 104.045 137.143 103.495C136.983 102.945 136.903 102.345 136.903 101.695C136.903 101.015 136.988 100.38 137.158 99.79C137.328 99.2 137.558 98.69 137.848 98.26C138.148 97.82 138.498 97.48 138.898 97.24C139.308 96.99 139.748 96.865 140.218 96.865C140.628 96.865 141.018 96.955 141.388 97.135C141.758 97.305 142.073 97.52 142.333 97.78V93.385H144.463L144.388 106ZM139.768 100.585C139.768 100.995 139.878 101.325 140.098 101.575C140.328 101.825 140.618 101.95 140.968 101.95C141.348 101.95 141.668 101.815 141.928 101.545C142.198 101.275 142.333 100.93 142.333 100.51C142.333 100.32 142.298 100.14 142.228 99.97C142.168 99.8 142.078 99.655 141.958 99.535C141.838 99.405 141.698 99.305 141.538 99.235C141.378 99.165 141.208 99.13 141.028 99.13C140.668 99.13 140.368 99.265 140.128 99.535C139.888 99.805 139.768 100.155 139.768 100.585ZM146.04 97.585C146.38 97.315 146.745 97.13 147.135 97.03C147.525 96.92 147.92 96.865 148.32 96.865C148.61 96.865 148.895 96.89 149.175 96.94C149.465 96.99 149.74 97.055 150 97.135C150.02 97.745 150.03 98.245 150.03 98.635C150.04 99.015 150.045 99.31 150.045 99.52C150.045 99.82 150.04 100.035 150.03 100.165C150.02 100.285 150.01 100.4 150 100.51C149.98 100.51 149.93 100.5 149.85 100.48C149.77 100.46 149.675 100.44 149.565 100.42C149.455 100.4 149.335 100.385 149.205 100.375C149.085 100.355 148.965 100.345 148.845 100.345C148.665 100.345 148.51 100.37 148.38 100.42C148.26 100.46 148.2 100.545 148.2 100.675C148.2 100.785 148.24 100.89 148.32 100.99C148.4 101.08 148.495 101.175 148.605 101.275C148.725 101.365 148.85 101.455 148.98 101.545C149.12 101.625 149.25 101.7 149.37 101.77C149.64 101.95 149.89 102.195 150.12 102.505C150.36 102.805 150.48 103.205 150.48 103.705C150.48 104.145 150.38 104.52 150.18 104.83C149.99 105.14 149.745 105.395 149.445 105.595C149.145 105.795 148.805 105.94 148.425 106.03C148.055 106.12 147.69 106.165 147.33 106.165C147.19 106.165 147.03 106.16 146.85 106.15C146.67 106.14 146.485 106.12 146.295 106.09C146.115 106.06 145.935 106.025 145.755 105.985C145.575 105.935 145.41 105.875 145.26 105.805C145.21 105.635 145.175 105.455 145.155 105.265C145.135 105.065 145.125 104.87 145.125 104.68C145.125 104.59 145.125 104.48 145.125 104.35C145.135 104.22 145.145 104.09 145.155 103.96C145.165 103.82 145.18 103.685 145.2 103.555C145.22 103.425 145.24 103.315 145.26 103.225C145.37 103.275 145.495 103.33 145.635 103.39C145.785 103.44 145.94 103.49 146.1 103.54C146.26 103.59 146.415 103.635 146.565 103.675C146.725 103.705 146.875 103.72 147.015 103.72C147.215 103.72 147.37 103.68 147.48 103.6C147.59 103.52 147.645 103.41 147.645 103.27C147.645 103.15 147.61 103.045 147.54 102.955C147.47 102.855 147.385 102.765 147.285 102.685C147.185 102.595 147.075 102.52 146.955 102.46C146.835 102.39 146.725 102.33 146.625 102.28C146.435 102.18 146.24 102.07 146.04 101.95C145.84 101.83 145.66 101.685 145.5 101.515C145.34 101.335 145.21 101.12 145.11 100.87C145.01 100.62 144.96 100.315 144.96 99.955C144.96 99.535 145.04 99.115 145.2 98.695C145.37 98.275 145.65 97.905 146.04 97.585Z" fill="#14171A"/>
    <path d="M154.8 36.4L115 0L109.4 6.1L142.4 36.4H12.3L45.3 6.1L39.7 0L0 36.4V60.4C0 71.3 10.5 80.1 23.3 80.1H47.8C60.6 80.1 71 71.3 71 60.4V44.7H83.7V60.4C83.7 71.3 94.2 80.1 107 80.1H131.5C144.3 80.1 154.8 71.3 154.8 60.4V36.4Z" fill="#1DA1F2"/>
    <path d="M48 49C47.0424 49.6755 45.9821 50.1921 44.86 50.53C44.2577 49.8375 43.4573 49.3467 42.567 49.1239C41.6767 48.9012 40.7395 48.9572 39.8821 49.2845C39.0247 49.6117 38.2884 50.1944 37.773 50.9537C37.2575 51.713 36.9877 52.6123 37 53.53V54.53C35.2426 54.5756 33.5013 54.1858 31.931 53.3954C30.3607 52.6051 29.0103 51.4386 28 50C28 50 24 59 33 63C30.9405 64.398 28.4872 65.0989 26 65C35 70 46 65 46 53.5C45.9991 53.2215 45.9723 52.9436 45.92 52.67C46.9406 51.6635 47.6608 50.3927 48 49V49Z" fill="white" stroke="white" stroke-width="2" stroke-linecap="round" stroke-linejoin="round"/>
    <path d="M131 49C130.042 49.6755 128.982 50.1921 127.86 50.53C127.258 49.8375 126.457 49.3467 125.567 49.1239C124.677 48.9012 123.739 48.9572 122.882 49.2845C122.025 49.6117 121.288 50.1944 120.773 50.9537C120.258 51.713 119.988 52.6123 120 53.53V54.53C118.243 54.5756 116.501 54.1858 114.931 53.3954C113.361 52.6051 112.01 51.4386 111 50C111 50 107 59 116 63C113.941 64.398 111.487 65.0989 109 65C118 70 129 65 129 53.5C128.999 53.2215 128.972 52.9436 128.92 52.67C129.941 51.6635 130.661 50.3927 131 49V49Z" fill="white" stroke="white" stroke-width="2" stroke-linecap="round" stroke-linejoin="round"/>
</svg>
