<svg width="155" height="81" viewBox="0 0 155 81" fill="none" xmlns="http://www.w3.org/2000/svg">
    <path d="M154.8 36.4L115 0L109.4 6.1L142.4 36.4H12.3L45.3 6.1L39.7 0L0 36.4V60.4C0 71.3 10.5 80.1 23.3 80.1H47.8C60.6 80.1 71 71.3 71 60.4V44.7H83.7V60.4C83.7 71.3 94.2 80.1 107 80.1H131.5C144.3 80.1 154.8 71.3 154.8 60.4V36.4Z" fill="#00ACEE"/>
    <path d="M48 49C47.0424 49.6755 45.9821 50.1921 44.86 50.53C44.2577 49.8375 43.4573 49.3467 42.567 49.1239C41.6767 48.9012 40.7395 48.9572 39.8821 49.2845C39.0247 49.6117 38.2884 50.1944 37.773 50.9537C37.2575 51.713 36.9877 52.6123 37 53.53V54.53C35.2426 54.5756 33.5013 54.1858 31.931 53.3954C30.3607 52.6051 29.0103 51.4386 28 50C28 50 24 59 33 63C30.9405 64.398 28.4872 65.0989 26 65C35 70 46 65 46 53.5C45.9991 53.2215 45.9723 52.9436 45.92 52.67C46.9406 51.6635 47.6608 50.3927 48 49V49Z" fill="white" stroke="white" stroke-width="2" stroke-linecap="round" stroke-linejoin="round"/>
    <path d="M131 49C130.042 49.6755 128.982 50.1921 127.86 50.53C127.258 49.8375 126.457 49.3467 125.567 49.1239C124.677 48.9012 123.739 48.9572 122.882 49.2845C122.025 49.6117 121.288 50.1944 120.773 50.9537C120.258 51.713 119.988 52.6123 120 53.53V54.53C118.243 54.5756 116.501 54.1858 114.931 53.3954C113.361 52.6051 112.01 51.4386 111 50C111 50 107 59 116 63C113.941 64.398 111.487 65.0989 109 65C118 70 129 65 129 53.5C128.999 53.2215 128.972 52.9436 128.92 52.67C129.941 51.6635 130.661 50.3927 131 49V49Z" fill="white" stroke="white" stroke-width="2" stroke-linecap="round" stroke-linejoin="round"/>
</svg>
